<?xml version="1.0" encoding="UTF-8"?><svg id="Ebene_2" xmlns="http://www.w3.org/2000/svg" viewBox="0 0 399.89 399.89"><defs><style>.cls-1{fill:#031d2f;}.cls-2{fill:#617c97;}</style></defs><g id="_ëîé_1"><g><g><circle class="cls-1" cx="199.95" cy="199.95" r="199.44"/><path class="cls-2" d="M199.95,399.89C89.7,399.89,0,310.2,0,199.95S89.7,0,199.95,0s199.95,89.7,199.95,199.95-89.7,199.95-199.95,199.95ZM199.95,1.01C90.25,1.01,1.01,90.25,1.01,199.95s89.24,198.93,198.94,198.93,198.93-89.24,198.93-198.93S309.64,1.01,199.95,1.01Z"/></g><path class="cls-2" d="M199.95,390.54c-105.09,0-190.59-85.5-190.59-190.59S94.85,9.35,199.95,9.35s190.59,85.5,190.59,190.59-85.5,190.59-190.59,190.59Zm0-380.18C95.41,10.36,10.36,95.41,10.36,199.95s85.05,189.58,189.58,189.58,189.58-85.05,189.58-189.58S304.48,10.36,199.95,10.36Z"/><path class="cls-2" d="M199.95,366.27c-91.71,0-166.33-74.61-166.33-166.33S108.23,33.62,199.95,33.62s166.33,74.61,166.33,166.33-74.61,166.33-166.33,166.33Zm0-331.64c-91.16,0-165.32,74.16-165.32,165.32s74.16,165.32,165.32,165.32,165.31-74.16,165.31-165.32S291.1,34.63,199.95,34.63Z"/><path class="cls-2" d="M199.95,316.06c-64.02,0-116.11-52.09-116.11-116.11s52.09-116.11,116.11-116.11,116.11,52.09,116.11,116.11-52.09,116.11-116.11,116.11Zm0-231.21c-63.47,0-115.1,51.63-115.1,115.1s51.63,115.1,115.1,115.1,115.1-51.63,115.1-115.1-51.63-115.1-115.1-115.1Z"/><g><rect class="cls-2" x="126.13" y="103.25" width="199.17" height="1.01" transform="translate(67.06 294.91) rotate(-74.99)"/><rect class="cls-2" x="170.78" y="129.02" width="199.17" height="1.01" transform="translate(-12.4 229.11) rotate(-45)"/><rect class="cls-2" x="196.55" y="173.67" width="199.17" height="1.01" transform="translate(-35 82.62) rotate(-15.01)"/><rect class="cls-2" x="295.63" y="126.13" width="1.01" height="199.17" transform="translate(1.46 453.35) rotate(-75)"/><rect class="cls-2" x="269.86" y="170.78" width="1.01" height="199.17" transform="translate(-111.99 270.36) rotate(-45)"/><rect class="cls-2" x="225.22" y="196.55" width="1.01" height="199.17" transform="translate(-68.96 68.51) rotate(-15)"/><rect class="cls-2" x="74.58" y="295.63" width="199.17" height="1.01" transform="translate(-156.96 387.72) rotate(-75)"/><rect class="cls-2" x="29.94" y="269.86" width="199.17" height="1.01" transform="translate(-153.24 170.78) rotate(-45)"/><rect class="cls-2" x="4.17" y="225.22" width="199.17" height="1.01" transform="translate(-54.89 34.55) rotate(-15)"/><rect class="cls-2" x="103.25" y="74.58" width="1.01" height="199.17" transform="translate(-91.34 229.31) rotate(-75)"/><rect class="cls-2" x="129.02" y="29.94" width="1.01" height="199.17" transform="translate(-53.65 129.53) rotate(-45)"/><rect class="cls-2" x="173.67" y="4.17" width="1.01" height="199.17" transform="translate(-20.92 48.61) rotate(-15)"/></g><g><path class="cls-1" d="M241.65,199.95c0,23.03-18.67,41.71-41.71,41.71s-41.71-18.67-41.71-41.71,18.67-41.71,41.71-41.71,41.71,18.67,41.71,41.71Z"/><path class="cls-2" d="M199.95,242.16c-23.28,0-42.21-18.94-42.21-42.21s18.94-42.21,42.21-42.21,42.21,18.94,42.21,42.21-18.94,42.21-42.21,42.21Zm0-83.42c-22.72,0-41.2,18.48-41.2,41.2s18.48,41.2,41.2,41.2,41.2-18.48,41.2-41.2-18.48-41.2-41.2-41.2Z"/></g></g></g></svg>