<?xml version="1.0" encoding="UTF-8"?><svg id="_ëîé_1" xmlns="http://www.w3.org/2000/svg" viewBox="0 0 299.76 400.18"><defs><style>.cls-1{fill:#e0efff;}</style></defs><polygon class="cls-1" points="278.01 60.5 279.21 60.87 260.35 121.59 259.13 121.22 278.01 60.5"/><rect class="cls-1" x="258.29" y="5.61" width="1.26" height="63.27" transform="translate(37.83 177.04) rotate(-40.49)"/><polygon class="cls-1" points="183.59 9.31 238.42 12.56 238.34 13.81 183.51 10.56 183.59 9.31"/><polygon class="cls-1" points="183.73 9.66 184.42 10.73 121.26 51.8 120.58 50.75 183.73 9.66"/><polygon class="cls-1" points="120.41 50.42 121.43 51.17 87.76 98.02 86.74 97.28 120.41 50.42"/><polygon class="cls-1" points="88.52 97.43 125.43 144.98 124.44 145.76 87.52 98.2 88.52 97.43"/><rect class="cls-1" x="141.08" y="142.06" width="1.27" height="70.08" transform="translate(-67.89 90.43) rotate(-28.87)"/><polygon class="cls-1" points="158.02 207.64 159.25 207.93 143.93 272.51 142.7 272.21 158.02 207.64"/><polygon class="cls-1" points="144.86 257.16 145.97 257.74 139.67 269.87 138.55 269.29 144.86 257.16"/><rect class="cls-1" x="111.44" y="288.49" width="37.83" height="1.26" transform="translate(-182.43 236.68) rotate(-56.21)"/><polygon class="cls-1" points="119.39 304.38 120.27 305.28 71.41 352.71 70.53 351.82 119.39 304.38"/><polygon class="cls-1" points="57.34 359.26 119.4 390.97 118.82 392.09 56.76 360.38 57.34 359.26"/><polygon class="cls-1" points="34.19 299.68 35.4 299.29 55.03 360.23 53.84 360.61 34.19 299.68"/><rect class="cls-1" x="20.63" y="260.42" width="1.27" height="43.16" transform="translate(-167.06 71.03) rotate(-37.44)"/><polygon class="cls-1" points="259.39 69.77 265.48 60.42 260.45 52.27 271.31 53.51 271.02 43.96 279.37 49.76 285.53 42.27 287.67 51.33 297.16 50.91 290.59 60.18 299.76 67.27 287.99 69.8 287.5 82.21 278.22 73.7 269.07 80.79 269.6 68.62 259.39 69.77"/><polygon class="cls-1" points="116.46 283.01 124.35 270.86 117.82 260.32 131.91 261.92 131.52 249.54 142.36 257.05 150.35 247.35 153.12 259.08 165.42 258.54 156.9 270.56 168.8 279.77 153.52 283.04 152.89 299.14 140.86 288.1 129 297.28 129.67 281.51 116.46 283.01"/><polygon class="cls-1" points="29.92 370.44 37.83 358.31 31.29 347.76 45.39 349.36 45 336.99 55.83 344.49 63.83 334.78 66.6 346.52 78.91 345.99 70.38 358.01 82.27 367.19 67.01 370.48 66.36 386.58 54.35 375.53 42.48 384.73 43.14 368.95 29.92 370.44"/><polygon class="cls-1" points="254.59 133.12 253.62 124.47 245.83 120.05 254.18 116.38 255.62 107.51 261.62 114.45 270.39 112.89 265.83 120.82 269.73 128.83 260.77 127.09 254.59 133.12"/><polygon class="cls-1" points="231.99 19.92 233.97 14.54 230.69 9.64 236.69 9.94 240.15 5.14 241.65 11 247.28 12.66 242.25 16.01 242.18 21.87 237.42 18.2 231.99 19.92"/><polygon class="cls-1" points="172.59 10.01 179.67 7.46 181.81 0 186.59 6.27 194.34 5.71 189.72 12.16 192.8 19.22 185.19 16.99 179.25 21.87 178.91 13.99 172.59 10.01"/><polygon class="cls-1" points="112.89 59.47 115.49 52.4 111.18 45.96 119.05 46.36 123.6 40.05 125.57 47.75 132.96 49.94 126.35 54.32 126.26 62.01 120.01 57.2 112.89 59.47"/><polygon class="cls-1" points="79.21 105.36 81.8 98.29 77.49 91.86 85.36 92.24 89.93 85.93 91.87 93.64 99.27 95.84 92.67 100.22 92.57 107.91 86.32 103.09 79.21 105.36"/><polygon class="cls-1" points="151.78 214.82 153.91 209.05 150.38 203.8 156.8 204.11 160.53 198.97 162.13 205.25 168.17 207.04 162.77 210.62 162.69 216.89 157.59 212.96 151.78 214.82"/><polygon class="cls-1" points="112.73 398.09 114.85 392.34 111.32 387.08 117.75 387.4 121.47 382.25 123.08 388.53 129.11 390.33 123.72 393.9 123.65 400.18 118.53 396.25 112.73 398.09"/><polygon class="cls-1" points="0 268.66 4.12 264.09 2.82 257.9 8.66 260.6 14.03 257.23 13.17 263.64 18.1 267.56 11.76 268.86 9.35 274.66 6.08 269.11 0 268.66"/><polygon class="cls-1" points="116.36 312.52 116.16 307.11 111.51 304.01 116.87 302.1 118.18 296.65 121.57 301.25 127.11 300.67 123.91 305.41 125.96 310.54 120.49 309.06 116.36 312.52"/><polygon class="cls-1" points="106.99 149.35 116.72 142.44 116.83 130.19 126.77 137.75 138.35 133.6 134.02 145.38 141.71 154.87 129.16 154.67 122.18 164.63 118.31 152.76 106.99 149.35"/><polygon class="cls-1" points="21.94 307.69 27.08 298.98 22.93 289.45 33.23 291.86 40.75 284.65 41.48 295.27 50.7 299.95 40.93 304.14 38.96 314.27 31.87 306.41 21.94 307.69"/></svg>