# Blender 3.3.1
# www.blender.org
mtllib TheLovers.mtl
o Tarot_Cards_
v -3.308228 -6.032471 -0.049322
v 3.308227 -6.032471 -0.049322
v 3.308227 -6.032471 -0.037115
v -3.308228 -6.032471 -0.037115
v 3.492553 -5.833984 -0.049322
v 3.492553 5.833984 -0.049318
v 3.492553 5.833984 -0.037111
v 3.492553 -5.833984 -0.037115
v 3.308227 6.032471 -0.049318
v -3.308228 6.032471 -0.049318
v -3.308228 6.032471 -0.037111
v 3.308227 6.032471 -0.037111
v -3.492555 5.833984 -0.049318
v -3.492555 -5.833984 -0.049322
v -3.492555 -5.833984 -0.037115
v -3.492555 5.833984 -0.037111
v 3.392455 -6.032471 0.050678
v 3.392455 -6.032471 0.034662
v 3.467528 -6.007446 0.034662
v 3.467528 -6.007446 0.050678
v -3.392457 -6.032471 -0.049322
v -3.392457 -6.032471 -0.037115
v -3.467530 -6.007446 -0.037115
v -3.467530 -6.007446 -0.049322
v 3.492553 5.932495 0.050682
v 3.492553 5.932495 0.034666
v 3.467528 6.007446 0.034666
v 3.467528 6.007446 0.050682
v 3.492553 -5.932495 -0.049322
v 3.492553 -5.932495 -0.037115
v 3.467528 -6.007446 -0.037115
v 3.467528 -6.007446 -0.049322
v -3.392457 6.032471 0.050682
v -3.392457 6.032471 0.034666
v -3.467530 6.007446 0.034666
v -3.467530 6.007446 0.050682
v 3.392455 6.032471 -0.049318
v 3.392455 6.032471 -0.037111
v 3.467528 6.007446 -0.037111
v 3.467528 6.007446 -0.049318
v -3.492555 -5.932495 0.050678
v -3.492555 -5.932495 0.034662
v -3.467530 -6.007446 0.034662
v -3.467530 -6.007446 0.050678
v -3.492555 5.932495 -0.049318
v -3.492555 5.932495 -0.037111
v -3.467530 6.007446 -0.037111
v -3.467530 6.007446 -0.049318
v -3.392457 -6.032471 0.050678
v -3.400758 -5.940918 0.050678
v -3.492555 5.932495 0.050682
v -3.400758 5.940918 0.050682
v -3.400758 -5.842285 0.050678
v -3.400758 5.842285 0.050682
v -3.492555 5.833984 0.050682
v -3.492555 -5.833984 0.050678
v -3.308228 -6.032471 0.050678
v 3.308227 -6.032471 0.050678
v 3.316283 -5.940918 0.050678
v -3.316285 -5.940918 0.050678
v 3.492553 -5.932495 0.050678
v 3.400756 -5.940918 0.050678
v 3.316283 5.842285 0.050682
v -3.316285 5.842285 0.050682
v -3.316285 -5.842285 0.050678
v 3.316283 -5.842285 0.050678
v 3.492553 -5.833984 0.050678
v 3.492553 5.833984 0.050682
v 3.400756 5.842285 0.050682
v 3.400756 -5.842285 0.050678
v 3.308227 6.032471 0.050682
v -3.308228 6.032471 0.050682
v -3.316285 5.940918 0.050682
v 3.316283 5.940918 0.050682
v 3.400756 5.940918 0.050682
v 3.392455 6.032471 0.050682
v -3.492555 -5.932495 -0.049322
v -3.400758 -5.940918 -0.049322
v -3.400758 5.940918 -0.049318
v -3.392457 6.032471 -0.049318
v -3.400758 5.842285 -0.049318
v -3.400758 -5.842285 -0.049322
v -3.316285 -5.940918 -0.049322
v 3.316283 -5.940918 -0.049322
v 3.400756 -5.940918 -0.049322
v 3.392455 -6.032471 -0.049322
v -3.316285 5.842285 -0.049318
v 3.316283 5.842285 -0.049318
v 3.316283 -5.842285 -0.049322
v -3.316285 -5.842285 -0.049322
v 3.400756 -5.842285 -0.049322
v 3.400756 5.842285 -0.049318
v 3.316283 5.940918 -0.049318
v -3.316285 5.940918 -0.049318
v 3.492553 5.932495 -0.049318
v 3.400756 5.940918 -0.049318
v -3.308228 -6.032471 0.034662
v 3.308227 -6.032471 0.034662
v 3.492553 -5.833984 0.034662
v 3.492553 5.833984 0.034666
v 3.308227 6.032471 0.034666
v -3.308228 6.032471 0.034666
v -3.492555 5.833984 0.034666
v -3.492555 -5.833984 0.034662
v 3.392455 -6.032471 -0.037115
v -3.392457 -6.032471 0.034662
v 3.492553 5.932495 -0.037111
v 3.492553 -5.932495 0.034662
v -3.392457 6.032471 -0.037111
v 3.392455 6.032471 0.034666
v -3.492555 -5.932495 -0.037115
v -3.492555 5.932495 0.034666
vn -0.0000 -1.0000 -0.0000
vn 1.0000 -0.0000 -0.0000
vn -0.0000 1.0000 -0.0000
vn -1.0000 -0.0000 -0.0000
vn 0.3162 -0.9487 -0.0000
vn -0.3162 -0.9487 -0.0000
vn 0.9485 0.3167 -0.0000
vn 0.9485 -0.3167 -0.0000
vn -0.3162 0.9487 -0.0000
vn 0.3162 0.9487 -0.0000
vn -0.9485 -0.3167 -0.0000
vn -0.9485 0.3167 -0.0000
vn -0.0000 -0.0000 1.0000
vn -0.0000 -0.0000 -1.0000
vt 0.880715 0.379221
vt 0.572287 0.001992
vt 0.880715 0.727799
vt 0.300788 0.001992
vt 0.880072 0.727799
vt 0.880072 0.379221
vt 0.989826 0.013215
vt 0.293225 0.010137
vt 0.989826 0.628093
vt 0.293225 0.488926
vt 0.989183 0.628093
vt 0.989183 0.013215
vt 0.888026 0.012529
vt 0.300788 0.497070
vt 0.888026 0.361107
vt 0.572287 0.497070
vt 0.887383 0.361107
vt 0.887383 0.012529
vt 0.932441 0.011110
vt 0.579849 0.488926
vt 0.932441 0.625984
vt 0.579849 0.010137
vt 0.931798 0.625984
vt 0.931798 0.011110
vt 0.575750 0.501686
vt 0.875447 0.732241
vt 0.876291 0.732241
vt 0.876291 0.736406
vt 0.985400 0.003860
vt 0.875447 0.736406
vt 0.578827 0.502712
vt 0.984556 0.003860
vt 0.880715 0.374780
vt 0.575746 0.001992
vt 0.880072 0.374780
vt 0.880072 0.370615
vt 0.931798 0.635339
vt 0.880715 0.370615
vt 0.578824 0.003018
vt 0.932441 0.635339
vt 0.579853 0.992651
vt 0.984556 0.633282
vt 0.985400 0.633282
vt 0.985400 0.637448
vt 0.883601 0.003922
vt 0.984556 0.637448
vt 0.578827 0.995728
vt 0.882758 0.003922
vt 0.989826 0.008026
vt 0.293225 0.006096
vt 0.989183 0.008026
vt 0.989183 0.003860
vt 0.880072 0.736406
vt 0.989826 0.003860
vt 0.294251 0.003018
vt 0.880715 0.736406
vt 0.297338 0.996754
vt 0.882758 0.365548
vt 0.883602 0.365548
vt 0.883602 0.369713
vt 0.928015 0.001754
vt 0.882758 0.369713
vt 0.294261 0.995728
vt 0.927171 0.001754
vt 0.888026 0.008087
vt 0.297329 0.497070
vt 0.887383 0.008087
vt 0.887383 0.003922
vt 0.989183 0.637448
vt 0.888026 0.003922
vt 0.294251 0.496045
vt 0.989826 0.637448
vt 0.293235 0.505790
vt 0.927171 0.631173
vt 0.928015 0.631173
vt 0.928015 0.635339
vt 0.876291 0.370615
vt 0.927171 0.635339
vt 0.294261 0.502712
vt 0.875447 0.370615
vt 0.932441 0.005920
vt 0.579849 0.492967
vt 0.931798 0.005920
vt 0.931798 0.001754
vt 0.887383 0.369713
vt 0.932441 0.001754
vt 0.578824 0.496045
vt 0.888026 0.369713
vt 0.297338 0.501686
vt 0.875447 0.374780
vt 0.297000 0.505444
vt 0.293235 0.992651
vt 0.927171 0.005920
vt 0.297000 0.992996
vt 0.297000 0.509491
vt 0.297000 0.988949
vt 0.293235 0.988610
vt 0.927171 0.011110
vt 0.293235 0.509830
vt 0.927171 0.625984
vt 0.300798 0.501686
vt 0.875447 0.379221
vt 0.572291 0.501686
vt 0.875447 0.727799
vt 0.572621 0.505444
vt 0.300467 0.505444
vt 0.579853 0.505790
vt 0.984556 0.008026
vt 0.576089 0.505444
vt 0.572621 0.988949
vt 0.300467 0.988949
vt 0.300467 0.509491
vt 0.572621 0.509491
vt 0.579853 0.509830
vt 0.984556 0.013215
vt 0.579853 0.988610
vt 0.984556 0.628093
vt 0.576088 0.988949
vt 0.576089 0.509491
vt 0.572290 0.996754
vt 0.882758 0.012529
vt 0.300798 0.996754
vt 0.882758 0.361107
vt 0.300467 0.992996
vt 0.572621 0.992996
vt 0.576088 0.992996
vt 0.575750 0.996754
vt 0.882758 0.008087
vt 0.932441 0.631173
vt 0.579849 0.006096
vt 0.576085 0.005750
vt 0.576085 0.493312
vt 0.888026 0.365548
vt 0.575746 0.497070
vt 0.576085 0.489266
vt 0.576085 0.009797
vt 0.572617 0.005750
vt 0.300458 0.005750
vt 0.296990 0.005750
vt 0.880715 0.732241
vt 0.297329 0.001992
vt 0.572617 0.489266
vt 0.300458 0.489266
vt 0.300458 0.009797
vt 0.572617 0.009797
vt 0.296990 0.009797
vt 0.296990 0.489266
vt 0.300458 0.493312
vt 0.572617 0.493312
vt 0.989826 0.633282
vt 0.293225 0.492967
vt 0.296990 0.493312
vt 0.876291 0.379221
vt 0.876291 0.727799
vt 0.985400 0.013215
vt 0.985400 0.628093
vt 0.883601 0.012529
vt 0.883602 0.361107
vt 0.928015 0.011110
vt 0.928015 0.625984
vt 0.880072 0.732241
vt 0.876291 0.374780
vt 0.989183 0.633282
vt 0.985400 0.008026
vt 0.887383 0.365548
vt 0.883601 0.008087
vt 0.931798 0.631173
vt 0.928015 0.005920
s 0
usemtl Five_tarot_cards_002.001
f 2/3/1 3/5/1 4/6/1 1/1/1
f 6/9/2 7/11/2 8/12/2 5/7/2
f 10/15/3 11/17/3 12/18/3 9/13/3
f 14/21/4 15/23/4 16/24/4 13/19/4
f 18/27/5 19/28/5 20/30/5 17/26/5
f 22/35/6 23/36/6 24/38/6 21/33/6
f 26/43/7 27/44/7 28/46/7 25/42/7
f 30/51/8 31/52/8 32/54/8 29/49/8
f 34/59/9 35/60/9 36/62/9 33/58/9
f 38/67/10 39/68/10 40/70/10 37/65/10
f 42/75/11 43/76/11 44/78/11 41/74/11
f 46/83/12 47/84/12 48/86/12 45/81/12
f 44/79/13 49/89/13 50/91/13 41/73/13
f 36/63/13 51/92/13 52/94/13 33/57/13
f 54/96/13 55/97/13 56/99/13 53/95/13
f 58/103/13 59/105/13 60/106/13 57/101/13
f 20/31/13 61/107/13 62/109/13 17/25/13
f 64/111/13 65/112/13 66/113/13 63/110/13
f 68/116/13 69/118/13 70/119/13 67/114/13
f 72/122/13 73/124/13 74/125/13 71/120/13
f 75/126/13 25/41/13 28/47/13 76/127/13
f 78/131/14 21/34/14 24/39/14 77/130/14
f 79/132/14 45/82/14 48/87/14 80/134/14
f 13/20/14 81/135/14 82/136/14 14/22/14
f 84/138/14 2/4/14 1/2/14 83/137/14
f 85/139/14 29/50/14 32/55/14 86/141/14
f 88/143/14 89/144/14 90/145/14 87/142/14
f 92/147/14 6/10/14 5/8/14 91/146/14
f 94/149/14 10/16/14 9/14/14 93/148/14
f 40/71/14 95/151/14 96/152/14 37/66/14
f 57/102/1 97/153/1 98/154/1 58/104/1
f 67/115/2 99/155/2 100/156/2 68/117/2
f 71/121/3 101/157/3 102/158/3 72/123/3
f 55/98/4 103/159/4 104/160/4 56/100/4
f 105/161/5 31/53/5 19/28/5 18/27/5
f 49/90/6 44/80/6 43/77/6 106/162/6
f 107/163/7 39/69/7 27/44/7 26/43/7
f 61/108/8 20/32/8 19/29/8 108/164/8
f 109/165/9 47/85/9 35/60/9 34/59/9
f 76/128/10 28/48/10 27/45/10 110/166/10
f 111/167/11 23/37/11 43/76/11 42/75/11
f 51/93/12 36/64/12 35/61/12 112/168/12
f 97/153/1 4/6/1 3/5/1 98/154/1
f 99/155/2 8/12/2 7/11/2 100/156/2
f 101/157/3 12/18/3 11/17/3 102/158/3
f 103/159/4 16/24/4 15/23/4 104/160/4
f 106/162/6 43/77/6 23/36/6 22/35/6
f 108/164/8 19/29/8 31/52/8 30/51/8
f 110/166/10 27/45/10 39/68/10 38/67/10
f 112/168/12 35/61/12 47/84/12 46/83/12
f 86/140/5 32/56/5 31/53/5 105/161/5
f 95/150/7 40/72/7 39/69/7 107/163/7
f 80/133/9 48/88/9 47/85/9 109/165/9
f 77/129/11 24/40/11 23/37/11 111/167/11
f 95/150/2 107/163/2 7/11/2 6/9/2
f 30/51/2 29/49/2 5/7/2 8/12/2
f 77/129/4 111/167/4 15/23/4 14/21/4
f 46/83/4 45/81/4 13/19/4 16/24/4
f 54/96/13 52/94/13 51/92/13 55/97/13
f 41/73/13 50/91/13 53/95/13 56/99/13
f 73/124/13 64/111/13 63/110/13 74/125/13
f 59/105/13 66/113/13 65/112/13 60/106/13
f 25/41/13 75/126/13 69/118/13 68/116/13
f 70/119/13 62/109/13 61/107/13 67/114/13
f 45/82/14 79/132/14 81/135/14 13/20/14
f 82/136/14 78/131/14 77/130/14 14/22/14
f 93/148/14 88/143/14 87/142/14 94/149/14
f 83/137/14 90/145/14 89/144/14 84/138/14
f 92/147/14 96/152/14 95/151/14 6/10/14
f 29/50/14 85/139/14 91/146/14 5/8/14
f 61/108/2 108/164/2 99/155/2 67/115/2
f 26/43/2 25/42/2 68/117/2 100/156/2
f 51/93/4 112/168/4 103/159/4 55/98/4
f 42/75/4 41/74/4 56/100/4 104/160/4
f 108/164/2 30/51/2 8/12/2 99/155/2
f 107/163/2 26/43/2 100/156/2 7/11/2
f 112/168/4 46/83/4 16/24/4 103/159/4
f 111/167/4 42/75/4 104/160/4 15/23/4
f 86/140/1 105/161/1 3/5/1 2/3/1
f 22/35/1 21/33/1 1/1/1 4/6/1
f 80/133/3 109/165/3 11/17/3 10/15/3
f 38/67/3 37/65/3 9/13/3 12/18/3
f 17/25/13 62/109/13 59/105/13 58/103/13
f 60/106/13 50/91/13 49/89/13 57/101/13
f 54/96/13 53/95/13 65/112/13 64/111/13
f 70/119/13 69/118/13 63/110/13 66/113/13
f 33/57/13 52/94/13 73/124/13 72/122/13
f 74/125/13 75/126/13 76/127/13 71/120/13
f 84/138/14 85/139/14 86/141/14 2/4/14
f 21/34/14 78/131/14 83/137/14 1/2/14
f 92/147/14 91/146/14 89/144/14 88/143/14
f 82/136/14 81/135/14 87/142/14 90/145/14
f 94/149/14 79/132/14 80/134/14 10/16/14
f 37/66/14 96/152/14 93/148/14 9/14/14
f 49/90/1 106/162/1 97/153/1 57/102/1
f 18/27/1 17/26/1 58/104/1 98/154/1
f 76/128/3 110/166/3 101/157/3 71/121/3
f 34/59/3 33/58/3 72/123/3 102/158/3
f 106/162/1 22/35/1 4/6/1 97/153/1
f 105/161/1 18/27/1 98/154/1 3/5/1
f 110/166/3 38/67/3 12/18/3 101/157/3
f 109/165/3 34/59/3 102/158/3 11/17/3
f 52/94/13 54/96/13 64/111/13 73/124/13
f 69/118/13 75/126/13 74/125/13 63/110/13
f 62/109/13 70/119/13 66/113/13 59/105/13
f 53/95/13 50/91/13 60/106/13 65/112/13
f 96/152/14 92/147/14 88/143/14 93/148/14
f 81/135/14 79/132/14 94/149/14 87/142/14
f 78/131/14 82/136/14 90/145/14 83/137/14
f 91/146/14 85/139/14 84/138/14 89/144/14
